# xmcd
#
# Track frame offsets: 
#        150
#        10279
#        24237
#        31916
#        41644
#        50413
#        63575
#        82556
#        98839
#        115668
#        130103
#        142975
#        153441
#        164764
#
# Disc length: 2442 seconds
#
# Revision: 0
# Processed by: cddbd v1.5.2PL0 Copyright (c) Steve Scherf et al.
# Submitted via: ExactAudioCopy v0.99pb4
#
DISCID=a709880e
DTITLE=Marty Stuart - Cool Country Favorites
DYEAR=1900
DGENRE=
TTITLE0=Freight Train Boogie
TTITLE1=Sundown In Nashville
TTITLE2=La Tingo Tango
TTITLE3=Bluegrass Express
TTITLE4=Keep Her Off Your Mind
TTITLE5=Buckaroo
TTITLE6=Pretty Boy Floyd
TTITLE7=A Satisfied Mind
TTITLE8=Truck Drivers' Blues
TTITLE9=Old, Old House
TTITLE10=Carol Lee
TTITLE11=Big River
TTITLE12=A Honky Tonk Song
TTITLE13=Dark Bird
EXTD=
EXTT0=
EXTT1=
EXTT2=
EXTT3=
EXTT4=
EXTT5=
EXTT6=
EXTT7=
EXTT8=
EXTT9=
EXTT10=
EXTT11=
EXTT12=
EXTT13=
PLAYORDER=
